<svg viewBox="0 0 640 640" xmlns="http://www.w3.org/2000/svg"><g fill="#006bff"><path d="m312.5 327.61a72.5 72.5 0 0 1 72.5 72.5 72.5 72.5 0 0 1 -72.5 72.5 72.5 72.5 0 0 1 -72.5-72.5 72.5 72.5 0 0 1 72.5-72.5z"/><path d="m152.5 167.61a72.5 72.5 0 0 1 72.5 72.5 72.5 72.5 0 0 1 -72.5 72.5 72.5 72.5 0 0 1 -72.5-72.5 72.5 72.5 0 0 1 72.5-72.5z"/><path d="m240 400.11 72.5-72.5a87.15 87.15 0 0 1 -87.73-86.61v-1.15l-72.5 72.5a87.15 87.15 0 0 1 87.73 86.65z"/><path d="m152.5 167.61a72.5 72.5 0 0 1 72.5 72.5 72.5 72.5 0 0 1 -72.5 72.5 72.5 72.5 0 0 1 -72.5-72.5 72.5 72.5 0 0 1 72.5-72.5z"/><path d="m312.5 7.61a72.5 72.5 0 0 1 72.5 72.5 72.5 72.5 0 0 1 -72.5 72.5 72.5 72.5 0 0 1 -72.5-72.5 72.5 72.5 0 0 1 72.5-72.5z"/><path d="m152.5 167.61 72.5 72.5a87.15 87.15 0 0 1 86.57-87.72h1.16l-72.5-72.5a87.16 87.16 0 0 1 -86.58 87.72z"/><path d="m312.5 7.61a72.5 72.5 0 0 1 72.5 72.5 72.5 72.5 0 0 1 -72.5 72.5 72.5 72.5 0 0 1 -72.5-72.5 72.5 72.5 0 0 1 72.5-72.5z"/><path d="m472.5 167.61a72.5 72.5 0 0 1 72.5 72.5 72.5 72.5 0 0 1 -72.5 72.5 72.5 72.5 0 0 1 -72.5-72.5 72.5 72.5 0 0 1 72.5-72.5z"/><path d="m385 80.11-72.5 72.5a87.16 87.16 0 0 1 87.73 86.58v1.15l72.5-72.5a87.15 87.15 0 0 1 -87.73-86.58z"/><path d="m472.5 167.61a72.5 72.5 0 0 1 72.5 72.5 72.5 72.5 0 0 1 -72.5 72.5 72.5 72.5 0 0 1 -72.5-72.5 72.5 72.5 0 0 1 72.5-72.5z"/><path d="m312.5 327.61a72.5 72.5 0 0 1 72.5 72.5 72.5 72.5 0 0 1 -72.5 72.5 72.5 72.5 0 0 1 -72.5-72.5 72.5 72.5 0 0 1 72.5-72.5z"/><path d="m472.5 312.61-72.5-72.5a87.15 87.15 0 0 1 -86.57 87.73h-1.16l72.5 72.5a87.17 87.17 0 0 1 86.58-87.73z"/><path d="m312.5 327.61a72.5 72.5 0 0 1 72.5 72.5 72.5 72.5 0 0 1 -72.5 72.5 72.5 72.5 0 0 1 -72.5-72.5 72.5 72.5 0 0 1 72.5-72.5z"/><path d="m312.5 167.61a72.5 72.5 0 0 1 72.5 72.5 72.5 72.5 0 0 1 -72.5 72.5 72.5 72.5 0 0 1 -72.5-72.5 72.5 72.5 0 0 1 72.5-72.5z"/><path d="m312.5 487.61a72.5 72.5 0 0 1 72.5 72.5 72.5 72.5 0 0 1 -72.5 72.5 72.5 72.5 0 0 1 -72.5-72.5 72.5 72.5 0 0 1 72.5-72.5z"/><path d="m472.5 327.61a72.5 72.5 0 0 1 72.5 72.5 72.5 72.5 0 0 1 -72.5 72.5 72.5 72.5 0 0 1 -72.5-72.5 72.5 72.5 0 0 1 72.5-72.5z"/><path d="m312.5 487.61 72.5 72.5a87.15 87.15 0 0 1 86.57-87.72h1.16l-72.5-72.5a87.16 87.16 0 0 1 -86.58 87.72z"/><path d="m312.5 487.61a72.5 72.5 0 0 1 72.5 72.5 72.5 72.5 0 0 1 -72.5 72.5 72.5 72.5 0 0 1 -72.5-72.5 72.5 72.5 0 0 1 72.5-72.5z"/><path d="m152.5 327.61a72.5 72.5 0 0 1 72.5 72.5 72.5 72.5 0 0 1 -72.5 72.5 72.5 72.5 0 0 1 -72.5-72.5 72.5 72.5 0 0 1 72.5-72.5z"/><path d="m240 560.11 72.5-72.5a87.15 87.15 0 0 1 -87.73-86.61v-1.15l-72.5 72.5a87.15 87.15 0 0 1 87.73 86.65z"/></g></svg>