<svg width="200" height="200" viewBox="0 0 200 200" fill="none" xmlns="http://www.w3.org/2000/svg">
<path d="M73.3397 100C73.3397 85.273 85.2756 73.3312 100.003 73.3312C114.731 73.3312 126.673 85.273 126.673 100C126.673 114.727 114.731 126.669 100.003 126.669C85.2756 126.669 73.3397 114.727 73.3397 100ZM58.9225 100C58.9225 122.688 77.3143 141.079 100.003 141.079C122.692 141.079 141.084 122.688 141.084 100C141.084 77.312 122.692 58.921 100.003 58.921C77.3143 58.921 58.9225 77.312 58.9225 100ZM133.11 57.2922C133.108 62.5941 137.404 66.8939 142.706 66.896C148.008 66.8981 152.308 62.6018 152.311 57.2998C152.313 51.9979 148.016 47.6981 142.714 47.696H142.71C137.411 47.6985 133.114 51.9928 133.11 57.2922ZM67.6819 165.118C59.8819 164.763 55.6424 163.464 52.825 162.366C49.0898 160.912 46.4247 159.18 43.6227 156.382C40.8207 153.584 39.0862 150.922 37.6385 147.187C36.5402 144.371 35.2409 140.13 34.8864 132.33C34.4985 123.898 34.4211 121.364 34.4211 100.001C34.4211 78.6368 34.5049 76.1107 34.8864 67.671C35.2416 59.8714 36.5504 55.639 37.6385 52.8147C39.0926 49.0797 40.8245 46.4147 43.6227 43.6128C46.4209 40.8109 49.0834 39.0765 52.825 37.6288C55.6411 36.5306 59.8819 35.2314 67.6819 34.8768C76.1149 34.489 78.6481 34.4115 100.003 34.4115C121.358 34.4115 123.894 34.4954 132.334 34.8768C140.134 35.232 144.367 36.5408 147.191 37.6288C150.926 39.0765 153.591 40.8147 156.393 43.6128C159.195 46.4109 160.923 49.0797 162.378 52.8147C163.476 55.6307 164.775 59.8714 165.13 67.671C165.517 76.1107 165.595 78.6368 165.595 100.001C165.595 121.364 165.517 123.891 165.13 132.33C164.774 140.13 163.469 144.369 162.378 147.187C160.923 150.922 159.191 153.587 156.393 156.382C153.595 159.178 150.926 160.912 147.191 162.366C144.375 163.464 140.134 164.764 132.334 165.118C123.901 165.506 121.368 165.583 100.003 165.583C78.6385 165.583 76.1123 165.506 67.6819 165.118ZM67.0195 20.4845C58.5027 20.8723 52.6829 22.2227 47.6005 24.2003C42.3369 26.2426 37.881 28.9824 33.4284 33.4278C28.9757 37.8733 26.2428 42.336 24.2005 47.5994C22.2228 52.6848 20.8724 58.5011 20.4845 67.0176C20.0902 75.5475 20 78.2746 20 100C20 121.725 20.0902 124.452 20.4845 132.982C20.8724 141.5 22.2228 147.315 24.2005 152.401C26.2428 157.661 28.9764 162.129 33.4284 166.572C37.8804 171.016 42.3369 173.752 47.6005 175.8C52.6925 177.777 58.5027 179.128 67.0195 179.516C75.5542 179.903 78.2769 180 100.003 180C121.73 180 124.457 179.91 132.987 179.516C141.504 179.128 147.32 177.777 152.406 175.8C157.666 173.752 162.125 171.018 166.578 166.572C171.031 162.127 173.758 157.661 175.806 152.401C177.784 147.315 179.14 141.499 179.522 132.982C179.91 124.446 180 121.725 180 100C180 78.2746 179.91 75.5475 179.522 67.0176C179.134 58.5005 177.784 52.6816 175.806 47.5994C173.758 42.3392 171.024 37.8803 166.578 33.4278C162.132 28.9754 157.666 26.2426 152.412 24.2003C147.32 22.2227 141.504 20.8659 132.993 20.4845C124.463 20.0966 121.736 20 100.01 20C78.2833 20 75.5542 20.0902 67.0195 20.4845Z" fill="white"/>
</svg>
