<svg width="200" height="200" viewBox="0 0 200 200" fill="none" xmlns="http://www.w3.org/2000/svg">
<path d="M100.632 101.5C100.632 93.3132 103.884 85.4617 109.673 79.6727C115.462 73.8838 123.313 70.6316 131.5 70.6316C139.687 70.6316 147.538 73.8838 153.327 79.6727C159.116 85.4617 162.368 93.3132 162.368 101.5C162.368 109.687 159.116 117.538 153.327 123.327C147.538 129.116 139.687 132.368 131.5 132.368C123.313 132.368 115.462 129.116 109.673 123.327C103.884 117.538 100.632 109.687 100.632 101.5V101.5Z" fill="#1ABCFE"/>
<path d="M38 163.684C38 155.379 41.2993 147.413 47.1722 141.541C53.045 135.668 61.0103 132.368 69.3158 132.368H100.632V163.684C100.632 171.99 97.3322 179.955 91.4594 185.828C85.5865 191.701 77.6213 195 69.3158 195C61.0103 195 53.045 191.701 47.1722 185.828C41.2993 179.955 38 171.99 38 163.684V163.684Z" fill="#0ACF83"/>
<path d="M100.632 8V70.6316H131.5C139.687 70.6316 147.538 67.3322 153.327 61.4594C159.116 55.5865 162.368 47.6213 162.368 39.3158C162.368 31.0103 159.116 23.045 153.327 17.1722C147.538 11.2993 139.687 8 131.5 8L100.632 8Z" fill="#FF7262"/>
<path d="M38 39.3158C38 47.6213 41.2993 55.5865 47.1722 61.4594C53.045 67.3322 61.0103 70.6316 69.3158 70.6316H100.632V8H69.3158C61.0103 8 53.045 11.2993 47.1722 17.1722C41.2993 23.045 38 31.0103 38 39.3158H38Z" fill="#F24E1E"/>
<path d="M38 101.5C38 109.687 41.2993 117.538 47.1722 123.327C53.045 129.116 61.0103 132.368 69.3158 132.368H100.632V70.6316H69.3158C61.0103 70.6316 53.045 73.8838 47.1722 79.6727C41.2993 85.4617 38 93.3132 38 101.5H38Z" fill="#A259FF"/>
</svg>
