<svg width="200" height="200" viewBox="0 0 200 200" fill="none" xmlns="http://www.w3.org/2000/svg">
<path d="M72.9166 191C70.4806 191 68.0936 190.559 65.7766 189.677C56.1516 186.002 51.0486 175.537 53.6946 165.863L53.5896 165.821L54.2196 164.239L103.199 37.07C103.934 35.18 103.598 30.7 103.241 28.201C103.129 27.606 103.129 27.074 103.297 26.521L103.353 26.36L103.395 26.255V26.206L103.458 26.073C104.214 24.029 106.608 23 110.514 23C115.225 23 121.728 24.47 128.371 27.011C133.95 29.16 139.032 31.834 142.602 34.536C146.816 37.686 148.496 40.514 147.551 42.936L147.334 43.251L147.222 43.356C146.907 43.783 146.592 44.196 146.172 44.511C143.974 46.408 140.824 49.656 140.292 51.126L90.8506 180.073L90.7386 180.031C87.2806 186.667 80.5396 190.93 72.9376 190.958H72.8956L72.9166 191ZM57.6076 164.974L57.4676 165.324C54.3386 173.731 58.6016 183.223 67.0156 186.45C68.9126 187.185 70.8726 187.528 72.8746 187.528C79.6716 187.528 85.6846 183.433 88.1906 177.028L88.3796 176.601L137.093 49.971C138.115 47.241 142.973 42.831 143.946 41.991L144.058 41.879C144.142 41.774 144.198 41.774 144.198 41.669C144.198 41.249 143.771 39.779 140.299 37.154C136.946 34.634 132.221 32.114 126.971 30.119C120.895 27.823 114.595 26.346 110.395 26.346C107.665 26.346 106.727 26.92 106.58 27.228V27.508C106.692 28.236 107.609 34.753 106.342 38.113L57.6076 164.953V164.974ZM120.258 84.425C120.258 84.425 113.51 92.188 107.357 94.988C101.197 97.774 96.6536 97.039 91.1166 100.28C85.5936 103.507 82.8006 108.001 82.8006 108.001L60.2956 166.535C57.8596 173.143 61.4716 180.885 68.1706 183.475C74.8906 186.058 82.4506 182.635 85.0546 176.083L120.258 84.425ZM85.7406 154.32C86.4686 154.033 87.3156 154.32 87.6026 155.055C87.8966 155.783 87.6026 156.609 86.8676 156.903C86.1396 157.204 85.2926 156.903 85.0056 156.175C84.7116 155.496 85.0056 154.663 85.7406 154.32ZM78.6426 141.706C77.5786 142.182 76.3046 141.706 75.8636 140.621C75.3736 139.557 75.8636 138.283 76.9416 137.842C78.0196 137.352 79.2866 137.842 79.7276 138.913C80.2456 139.963 79.7836 141.111 78.6426 141.643V141.706ZM80.6446 134.034C79.7836 132.018 80.6446 129.673 82.6536 128.728C84.6486 127.86 86.9586 128.728 87.9036 130.723C88.7506 132.746 87.9036 135.091 85.9086 136.022C83.8086 136.904 81.5056 136.022 80.5536 134.027L80.6446 134.034ZM97.6266 118.228C98.6976 117.71 99.9716 118.228 100.413 119.278C100.903 120.356 100.413 121.63 99.3416 122.071C98.2566 122.561 96.9826 122.071 96.5486 120.986C96.0306 119.922 96.5486 118.648 97.6266 118.207V118.228ZM88.5756 108.575C89.3106 108.281 90.1576 108.575 90.4376 109.31C90.7386 110.038 90.4376 110.892 89.7096 111.172C88.9816 111.466 88.1276 111.172 87.8546 110.444C87.5466 109.702 87.8966 108.855 88.5756 108.575ZM112.173 30.98C112.873 29.153 119.124 29.846 126.138 32.562C133.131 35.25 138.241 38.925 137.548 40.752C136.82 42.6 130.569 41.9 123.576 39.205C116.541 36.51 111.438 32.835 112.152 30.973H112.173V30.98Z" fill="#FF0202"/>
</svg>
