<svg width="312" height="200" viewBox="0 0 312 200" fill="none" xmlns="http://www.w3.org/2000/svg">
<path d="M154.265 189C153.301 189 152.344 188.747 151.5 188.261L142.7 183.051C141.386 182.316 142.027 182.056 142.461 181.906C144.213 181.293 144.569 181.154 146.439 180.092C146.636 179.98 146.893 180.019 147.094 180.138L153.855 184.15C154.099 184.282 154.445 184.282 154.672 184.15L181.031 168.935C181.275 168.796 181.433 168.512 181.433 168.222V137.805C181.433 137.502 181.275 137.231 181.025 137.079L154.677 121.878C154.433 121.732 154.109 121.732 153.865 121.878L127.522 137.079C127.267 137.225 127.104 137.508 127.104 137.799V168.216C127.104 168.506 127.263 168.783 127.513 168.922L134.732 173.091C138.651 175.051 141.046 172.742 141.046 170.419V140.398C141.046 139.969 141.383 139.639 141.811 139.639H145.15C145.566 139.639 145.909 139.969 145.909 140.398V170.432C145.909 175.658 143.058 178.66 138.103 178.66C136.579 178.66 135.378 178.66 132.026 177.011L125.112 173.025C124.271 172.535 123.573 171.833 123.088 170.989C122.603 170.145 122.348 169.189 122.347 168.216V137.799C122.347 135.819 123.403 133.972 125.112 132.995L151.497 117.774C153.167 116.83 155.384 116.83 157.04 117.774L183.392 133.002C184.233 133.491 184.93 134.192 185.416 135.035C185.901 135.877 186.156 136.833 186.157 137.805V168.222C186.157 170.195 185.094 172.036 183.392 173.025L157.04 188.247C156.195 188.734 155.237 188.988 154.262 188.986" fill="#689F63"/>
<path d="M162.406 168.041C150.873 168.041 148.455 162.746 148.455 158.306C148.455 157.884 148.795 157.547 149.218 157.547H152.623C152.999 157.547 153.316 157.821 153.375 158.192C153.89 161.662 155.42 163.411 162.395 163.411C167.95 163.411 170.312 162.156 170.312 159.21C170.312 157.515 169.639 156.255 161.009 155.41C153.791 154.697 149.33 153.107 149.33 147.334C149.33 142.016 153.817 138.849 161.332 138.849C169.771 138.849 173.954 141.778 174.482 148.073C174.491 148.179 174.478 148.285 174.443 148.386C174.409 148.486 174.354 148.578 174.282 148.656C174.21 148.735 174.122 148.797 174.025 148.84C173.928 148.882 173.823 148.904 173.717 148.904H170.292C169.936 148.904 169.626 148.654 169.553 148.31C168.729 144.662 166.736 143.494 161.319 143.494C155.255 143.494 154.549 145.605 154.549 147.189C154.549 149.109 155.381 149.67 163.562 150.752C171.665 151.827 175.511 153.345 175.511 159.039C175.511 164.779 170.721 168.072 162.368 168.072L162.406 168.041ZM194.474 135.814H195.358C196.084 135.814 196.223 135.306 196.223 135.009C196.223 134.23 195.688 134.23 195.391 134.23H194.481L194.474 135.814ZM193.399 133.32H195.358C196.031 133.32 197.351 133.32 197.351 134.824C197.351 135.873 196.678 136.091 196.275 136.223C197.061 136.276 197.113 136.79 197.219 137.516C197.272 137.971 197.358 138.757 197.516 139.02H196.308C196.275 138.757 196.091 137.305 196.091 137.226C196.012 136.902 195.899 136.744 195.497 136.744H194.501V139.027H193.399V133.32ZM191.043 136.157C191.043 138.519 192.95 140.432 195.292 140.432C197.654 140.432 199.561 138.479 199.561 136.157C199.561 133.788 197.628 131.908 195.286 131.908C192.976 131.908 191.037 133.762 191.037 136.15L191.043 136.157ZM200.379 136.17C200.379 138.968 198.09 141.251 195.299 141.251C192.528 141.251 190.218 138.994 190.218 136.17C190.218 133.293 192.581 131.09 195.299 131.09C198.037 131.09 200.373 133.3 200.373 136.17" fill="#689F63"/>
<path fill-rule="evenodd" clip-rule="evenodd" d="M72.6391 69.9846C72.6391 68.7706 71.9991 67.6555 70.9513 67.0518L43.0047 50.9724C42.5372 50.7 42.0094 50.548 41.4687 50.5303H41.1797C40.6439 50.5501 40.1154 50.6952 39.6357 50.9724L11.6904 67.0518C11.1766 67.3507 10.7501 67.7792 10.4535 68.2943C10.1569 68.8095 10.0006 69.3934 10 69.9879L10.0614 113.297C10.0614 113.898 10.3715 114.459 10.8993 114.756C11.414 115.072 12.0606 115.072 12.5752 114.756L29.1891 105.241C30.2382 104.617 30.8782 103.514 30.8782 102.312V82.0788C30.877 81.4863 31.0322 80.904 31.3282 80.3908C31.6242 79.8775 32.0505 79.4515 32.564 79.1559L39.6371 75.0822C40.1501 74.7843 40.7329 74.6276 41.3262 74.6283C41.9041 74.6283 42.494 74.7774 43.0047 75.0816L50.0745 79.1539C51.1209 79.7543 51.7636 80.8694 51.7636 82.0768V102.308C51.7636 103.509 52.4122 104.618 53.456 105.238L70.0593 114.746C70.3147 114.898 70.6065 114.978 70.9038 114.978C71.2012 114.978 71.493 114.898 71.7484 114.746C72.0026 114.596 72.2136 114.383 72.3603 114.128C72.507 113.872 72.5845 113.582 72.585 113.287L72.6391 69.9846ZM204.513 92.534C204.513 92.8356 204.352 93.1147 204.09 93.2638L194.492 98.7969C194.363 98.8705 194.218 98.9093 194.07 98.9093C193.923 98.9093 193.777 98.8705 193.649 98.7969L184.049 93.2638C183.785 93.114 183.627 92.8349 183.627 92.534V81.452C183.627 81.1498 183.785 80.8714 184.042 80.7196L193.636 75.1772C193.9 75.0255 194.223 75.0255 194.487 75.1772L204.087 80.7196C204.351 80.8714 204.509 81.1498 204.509 81.452L204.513 92.534ZM207.106 10.4532C206.849 10.3101 206.558 10.2365 206.264 10.2396C205.97 10.2427 205.681 10.3225 205.427 10.471C204.913 10.7745 204.595 11.3287 204.595 11.9291V54.8164C204.595 55.0237 204.541 55.2275 204.437 55.4072C204.333 55.5869 204.184 55.7361 204.005 55.8398C203.825 55.9435 203.621 55.998 203.414 55.9979C203.207 55.9978 203.003 55.943 202.824 55.8391L195.823 51.807C195.31 51.5107 194.729 51.3547 194.137 51.3547C193.545 51.3547 192.963 51.5107 192.45 51.807L164.494 67.9412C163.981 68.2361 163.555 68.6609 163.259 69.1729C162.962 69.6849 162.806 70.2659 162.805 70.8575V103.135C162.805 104.343 163.45 105.451 164.494 106.058L192.45 122.203C193.494 122.804 194.779 122.804 195.826 122.203L223.782 106.051C224.825 105.444 225.471 104.336 225.471 103.129V22.6853C225.47 22.0838 225.309 21.4935 225.004 20.9751C224.699 20.4567 224.261 20.0289 223.736 19.7359L207.106 10.4532ZM300.199 81.1603C300.71 80.8633 301.134 80.4375 301.428 79.9256C301.722 79.4136 301.877 78.8333 301.877 78.2427V70.4201C301.877 69.2166 301.237 68.1061 300.197 67.5004L272.419 51.3748C271.905 51.0767 271.321 50.9196 270.727 50.9196C270.132 50.9196 269.548 51.0767 269.034 51.3748L241.085 67.507C240.036 68.114 239.396 69.2225 239.396 70.43V102.694C239.396 103.908 240.049 105.03 241.098 105.63L268.869 121.459C269.892 122.046 271.146 122.053 272.182 121.479L288.98 112.143C289.508 111.846 289.844 111.285 289.844 110.678C289.844 110.071 289.521 109.504 288.993 109.207L260.872 93.0678C260.345 92.7709 260.021 92.2101 260.021 91.6097V81.4883C260.021 80.8839 260.338 80.327 260.866 80.0261L269.615 74.9786C270.136 74.6751 270.776 74.6751 271.297 74.9786L280.053 80.0261C280.574 80.3231 280.898 80.8839 280.898 81.4843V89.4415C280.898 90.042 281.221 90.6028 281.742 90.9063C282.263 91.2032 282.91 91.2032 283.431 90.8997L300.199 81.1603Z" fill="white"/>
<path d="M117.965 52.7969L82.7432 72.4884V111.003L117.965 130.984L152.023 111.003V72.4884L117.965 52.7969Z" fill="url(#paint0_linear)"/>
<defs>
<linearGradient id="paint0_linear" x1="117.383" y1="52.7969" x2="117.383" y2="130.984" gradientUnits="userSpaceOnUse">
<stop stop-color="#6BBF47"/>
<stop offset="1" stop-color="#3E863D"/>
</linearGradient>
</defs>
</svg>
