<svg width="200" height="200" viewBox="0 0 200 200" fill="none" xmlns="http://www.w3.org/2000/svg">
<path d="M62.8798 98.0375C62.155 96.6202 61.504 95.1664 60.9295 93.6818C60.4685 91.921 60.2498 90.1057 60.2794 88.2858V88.2858V68.7823C60.5154 66.0298 60.1811 63.2581 59.2974 60.6406C58.4137 58.023 56.9996 55.6159 55.1434 53.5696C50.6963 49.9286 45.0088 48.1571 39.2806 48.6288C36.101 48.6092 32.9323 49.0025 29.854 49.799C27.1209 50.4449 24.4785 51.4276 21.9876 52.7245C21.3328 53.0241 20.7548 53.4687 20.2973 54.0247C19.9842 54.671 19.8496 55.3893 19.9072 56.1051V59.0956C19.9072 60.3308 20.2973 60.981 21.1424 60.981H22.1176L24.458 60.0708C26.5791 59.2412 28.7505 58.5463 30.9592 57.9904C33.0901 57.4874 35.2709 57.2257 37.4603 57.2103C40.9902 56.8478 44.5252 57.8479 47.3421 60.0058C49.5001 62.7473 50.5031 66.2227 50.1376 69.6925V74.1133C47.7321 73.5282 45.4567 73.0731 43.1813 72.748C41.0251 72.4689 38.8543 72.3169 36.6802 72.293C31.3749 72.0031 26.1475 73.6685 21.9876 76.9738C20.1783 78.4832 18.7394 80.3875 17.7814 82.5402C16.8234 84.6928 16.3719 87.0365 16.4616 89.391C16.3569 91.5362 16.7019 93.6796 17.4744 95.6837C18.2469 97.6877 19.4299 99.5081 20.9474 101.028C22.5591 102.572 24.468 103.771 26.558 104.554C28.648 105.336 30.8754 105.685 33.1045 105.579C36.5099 105.631 39.8827 104.909 42.9684 103.467C46.0541 102.026 48.7722 99.9025 50.9177 97.2574C51.4783 98.4838 52.1078 99.6776 52.803 100.833C53.4188 101.837 54.1378 102.774 54.9484 103.629C55.1807 103.883 55.4613 104.089 55.7738 104.234C56.0863 104.379 56.4245 104.46 56.7687 104.474C57.333 104.484 57.8836 104.3 58.329 103.954L62.1647 101.418C62.4479 101.282 62.6966 101.084 62.8921 100.838C63.0877 100.592 63.225 100.305 63.2938 99.9986C63.3626 99.692 63.3611 99.3739 63.2894 99.0681C63.2177 98.7622 63.0777 98.4766 62.8798 98.2326V98.0375ZM50.3326 83.3449C50.3686 85.1183 50.1719 86.8887 49.7475 88.6109C49.4633 90.0464 48.8637 91.401 47.9922 92.5766C46.4388 94.3319 44.4726 95.6725 42.2712 96.4773C40.1769 97.1827 37.9798 97.5342 35.77 97.5175C33.9929 97.4425 32.2783 96.841 30.8438 95.7894C29.4093 94.7378 28.3198 93.2835 27.7136 91.6113C27.1075 89.9392 27.012 88.1246 27.4394 86.398C27.8668 84.6715 28.7978 83.111 30.114 81.9147C32.7575 80.1507 35.9172 79.3264 39.0856 79.5743C40.9709 79.5743 42.8563 79.5743 44.8066 79.8993C46.757 80.2244 48.5773 80.5494 50.3326 80.9395V83.3449ZM80.4979 101.028C80.6844 101.927 81.1113 102.758 81.7332 103.434C82.4282 103.88 83.2504 104.085 84.0736 104.019H89.2745C90.1189 104.095 90.9648 103.889 91.6799 103.434C92.3007 102.74 92.7071 101.882 92.8501 100.963L102.147 61.9561L111.573 100.963C111.655 101.868 112.046 102.717 112.679 103.368C113.397 103.876 114.274 104.107 115.149 104.019H120.35C121.16 104.061 121.961 103.833 122.625 103.368C123.277 102.732 123.729 101.918 123.926 101.028L139.008 54.2848C139.229 53.8146 139.361 53.3077 139.398 52.7895C139.426 52.465 139.426 52.1388 139.398 51.8143C139.432 51.6104 139.417 51.4013 139.354 51.2044C139.29 51.0076 139.181 50.8286 139.035 50.6824C138.889 50.5362 138.71 50.427 138.513 50.3638C138.316 50.3006 138.107 50.2853 137.903 50.3191H132.247C131.428 50.2933 130.618 50.4959 129.907 50.9042C129.333 51.5779 128.931 52.3811 128.737 53.2446L118.205 93.8118L108.518 53.5696C108.408 52.6918 108.021 51.872 107.413 51.2292C106.674 50.7732 105.807 50.568 104.942 50.6441H100.001C99.5696 50.5694 99.1268 50.5884 98.703 50.6998C98.2793 50.8112 97.8844 51.0125 97.5452 51.29C97.2061 51.5675 96.9306 51.9147 96.7374 52.308C96.5443 52.7013 96.438 53.1316 96.4258 53.5696L86.9991 93.3567L76.9223 53.5696C76.7381 52.7025 76.3353 51.8969 75.7521 51.2292C75.0411 50.7642 74.1918 50.5577 73.3467 50.6441H67.4956C66.5205 50.6441 66.0654 51.1642 66.0654 52.1394C66.1186 52.9625 66.2938 53.7732 66.5855 54.5448L80.4979 101.028ZM145.509 102.133C147.705 103.255 150.046 104.065 152.466 104.539C155.512 105.262 158.631 105.633 161.762 105.644C164.715 105.655 167.653 105.216 170.474 104.344C172.844 103.659 175.054 102.51 176.975 100.963C178.822 99.5318 180.331 97.7118 181.396 95.6321C182.467 93.4492 183.002 91.0421 182.956 88.6109C183 85.5597 182.015 82.5827 180.161 80.1594C177.9 77.4334 174.896 75.4232 171.514 74.3733L162.933 71.6429C160.556 70.9752 158.343 69.8243 156.431 68.2623C155.847 67.7124 155.383 67.0469 155.07 66.3083C154.757 65.5696 154.6 64.7738 154.611 63.9715C154.552 62.897 154.787 61.8267 155.291 60.8759C155.795 59.925 156.549 59.1297 157.472 58.5755C159.812 57.4115 162.4 56.8315 165.013 56.8852C169.023 56.8122 172.998 57.634 176.65 59.2907C177.362 59.6571 178.132 59.8989 178.925 60.0058C179.836 60.0058 180.356 59.3557 180.356 58.0554V55.1949C180.4 54.4957 180.193 53.8037 179.771 53.2446C179.301 52.5829 178.676 52.0471 177.95 51.6843C177.137 51.2473 176.289 50.8776 175.415 50.5791C174.31 50.5791 173.204 49.929 171.969 49.6689L168.068 48.9538H163.973C161.403 48.9087 158.841 49.2372 156.366 49.929C154.022 50.5829 151.818 51.6627 149.865 53.1146C148.068 54.4221 146.581 56.1089 145.509 58.0554C144.423 60.0487 143.863 62.2865 143.884 64.5566C143.912 67.7274 144.961 70.8049 146.875 73.3332C149.377 76.3561 152.765 78.5165 156.561 79.5092L165.338 82.2397C167.606 82.7481 169.708 83.8215 171.449 85.3603C171.996 85.9182 172.427 86.5788 172.717 87.3041C173.007 88.0294 173.151 88.805 173.139 89.586C173.174 90.7471 172.896 91.8962 172.336 92.9137C171.776 93.9313 170.953 94.7802 169.954 95.3721C167.244 96.8268 164.183 97.5019 161.112 97.3224C158.688 97.339 156.269 97.0993 153.896 96.6073C151.66 96.1511 149.48 95.4536 147.395 94.5269L145.9 93.8768H144.794C143.884 93.8768 143.364 94.5269 143.364 95.7621V99.0777C143.37 99.6628 143.503 100.24 143.754 100.768C144.305 101.41 145.026 101.883 145.835 102.133H145.509ZM170.344 130.478C148.685 139.597 125.451 144.389 101.952 144.586C70.343 144.548 39.2889 136.281 11.8458 120.597C9.63537 119.296 7.94507 121.572 9.76539 123.262C34.5037 145.568 66.6921 157.813 100.001 157.588C126.28 157.681 151.974 149.841 173.724 135.094C176.845 132.624 173.985 128.983 170.669 130.478H170.344ZM189.847 119.101C187.702 116.436 168.979 114.095 157.342 122.092C155.586 123.392 155.911 125.082 157.797 124.822C164.298 124.042 178.6 122.352 181.136 125.602C183.671 128.853 178.275 142.31 175.87 148.356C175.155 150.112 176.715 150.892 178.34 149.462C189.717 140.49 192.513 121.832 190.302 119.101H189.847Z" fill="#FFA800"/>
</svg>
