<svg width="200" height="200" viewBox="0 0 200 200" fill="none" xmlns="http://www.w3.org/2000/svg">
<path d="M100.494 11C51.0763 11 11 52.0818 11 102.778C11 143.315 36.6373 177.716 72.2044 189.849C76.6791 190.689 78.3167 187.862 78.3167 185.426C78.3167 183.25 78.236 177.479 78.2014 169.816C53.3022 175.362 48.0548 157.517 48.0548 157.517C43.9837 146.922 38.1136 144.095 38.1136 144.095C29.983 138.407 38.7247 138.515 38.7247 138.515C47.7087 139.165 52.4372 147.975 52.4372 147.975C60.4179 162 73.3808 157.944 78.4782 155.602C79.297 149.665 81.6036 145.633 84.1639 143.339C64.2929 141.009 43.4071 133.145 43.4071 97.9765C43.4071 87.9603 46.89 79.7652 52.6217 73.3557C51.6991 71.0262 48.6198 61.6958 53.4982 49.0662C53.4982 49.0662 61.0175 46.5947 78.1092 58.4794C85.2479 56.4335 92.8941 55.4165 100.506 55.381C108.106 55.4165 115.764 56.4335 122.914 58.4676C140.005 46.5947 147.502 49.0544 147.502 49.0544C152.38 61.684 149.312 71.0144 148.39 73.3439C154.122 79.7533 157.593 87.9485 157.593 97.9646C157.593 133.216 136.672 140.975 116.732 143.245C119.95 146.082 122.81 151.676 122.81 160.238C122.81 172.501 122.695 182.398 122.695 185.414C122.695 187.874 124.309 190.723 128.853 189.825C164.385 177.668 190 143.291 190 102.766C190 52.0935 149.924 11 100.494 11Z" fill="white"/>
</svg>
