<svg width="200" height="200" viewBox="0 0 200 200" fill="none" xmlns="http://www.w3.org/2000/svg">
<path d="M184.12 52.4725L177.294 45.6465L114.063 108.877C106.159 116.781 92.8665 116.781 84.9627 108.877L21.7323 46.0058L14.9062 52.8318L61.9698 99.8954L14.9062 146.959L21.7323 153.785L68.7958 106.721L78.1367 116.062C83.8849 121.81 91.4295 125.044 99.3333 125.044C107.237 125.044 114.782 121.81 120.53 116.062L129.871 106.721L176.934 153.785L183.76 146.959L136.697 99.8954L184.12 52.4725Z" fill="white"/>
<path d="M170.826 166H28.9172C20.6542 166 13.8281 159.174 13.8281 150.911V49.5985C13.8281 41.3354 20.6542 34.5094 28.9172 34.5094H170.826C179.09 34.5094 185.916 41.3354 185.916 49.5985V150.911C185.916 159.174 179.09 166 170.826 166ZM28.5579 44.2095C25.6838 44.2095 23.5283 46.3651 23.5283 49.2392V150.552C23.5283 153.426 25.6838 155.581 28.5579 155.581H170.467C173.341 155.581 175.497 153.426 175.497 150.552V49.2392C175.497 46.3651 173.341 44.2095 170.467 44.2095H28.5579Z" fill="white"/>
</svg>
