<svg width="200" height="200" viewBox="0 0 200 200" fill="none" xmlns="http://www.w3.org/2000/svg">
<path fill-rule="evenodd" clip-rule="evenodd" d="M100 44C75.2 44 59.7 56.4444 53.5 81.3333C62.8 68.8889 73.65 64.2222 86.05 67.3333C93.1249 69.1084 98.1817 74.2594 103.779 79.9613C112.897 89.2497 123.45 100 146.5 100C171.3 100 186.8 87.5556 193 62.6667C183.7 75.1111 172.85 79.7778 160.45 76.6667C153.375 74.8916 148.318 69.7406 142.721 64.0387C133.603 54.7503 123.05 44 100 44ZM53.5 100C28.7 100 13.2 112.444 7 137.333C16.3 124.889 27.15 120.222 39.55 123.333C46.6249 125.108 51.6817 130.259 57.2789 135.961C66.397 145.25 76.9501 156 100 156C124.8 156 140.3 143.556 146.5 118.667C137.2 131.111 126.35 135.778 113.95 132.667C106.875 130.892 101.818 125.741 96.2211 120.039C87.103 110.75 76.5499 100 53.5 100Z" fill="url(#paint0_linear)"/>
<defs>
<linearGradient id="paint0_linear" x1="1.83333" y1="44" x2="193.341" y2="154.024" gradientUnits="userSpaceOnUse">
<stop stop-color="#2298BD"/>
<stop offset="1" stop-color="#0ED7B5"/>
</linearGradient>
</defs>
</svg>
