<svg width="200" height="200" viewBox="0 0 200 200" fill="none" xmlns="http://www.w3.org/2000/svg">
<path d="M99.8332 116.6C109.075 116.6 116.567 109.108 116.567 99.8667C116.567 90.6251 109.075 83.1333 99.8332 83.1333C90.5916 83.1333 83.0999 90.6251 83.0999 99.8667C83.0999 109.108 90.5916 116.6 99.8332 116.6Z" fill="#00D8FF"/>
<path d="M99.8334 138.2C76.3334 138.2 55.8001 135.433 40.4334 130.167C30.4667 126.767 22.0001 122.233 15.9667 117.067C9.56675 111.6 6.16675 105.633 6.16675 99.8667C6.16675 88.8 18.3001 77.9667 38.6667 70.9C55.3334 65.1 77.0667 61.8667 99.8001 61.8667C122.133 61.8667 143.567 65 160.133 70.7334C169.833 74.0667 178 78.4 183.8 83.2C190.1 88.4667 193.433 94.2334 193.433 99.8667C193.433 111.367 179.867 123 158 130.233C142.533 135.367 121.867 138.2 99.8334 138.2ZM99.8334 69.8667C78.2668 69.8667 56.9334 73 41.3334 78.4334C22.6001 84.9667 14.2001 93.9 14.2001 99.8667C14.2001 106.067 23.2334 115.833 43.0334 122.6C57.5668 127.567 77.2334 130.2 99.8334 130.2C121.033 130.2 140.8 127.533 155.5 122.633C176.067 115.8 185.467 106.033 185.467 99.8667C185.467 96.7 183.067 92.9667 178.7 89.3334C173.667 85.1334 166.333 81.3 157.567 78.2667C141.8 72.8667 121.3 69.8667 99.8334 69.8667Z" fill="#00D8FF"/>
<path d="M61.8667 183.267C58.4667 183.267 55.4667 182.533 52.9334 181.067C43.3667 175.533 40.0334 159.6 44.0667 138.433C47.3667 121.067 55.4334 100.667 66.8 80.9667C77.9667 61.6334 91.3667 44.6334 104.6 33.1334C112.333 26.4001 120.167 21.4667 127.233 18.8667C134.933 16.0334 141.6 16.0334 146.467 18.8334C156.433 24.5667 159.733 42.1667 155.067 64.7001C151.767 80.7001 143.9 100 132.9 119.1C121.167 139.433 108.5 155.833 96.2667 166.533C88.3334 173.467 80.1667 178.533 72.7001 181.167C68.8001 182.567 65.1334 183.267 61.8667 183.267ZM70.2334 82.9667L73.7001 84.9667C62.9334 103.633 54.9667 123.667 51.9 139.933C48.2 159.433 51.7667 171.167 56.9 174.133C58.1667 174.867 59.8334 175.267 61.8667 175.267C68.5001 175.267 78.9334 171.067 91.0001 160.533C102.567 150.433 114.667 134.7 125.967 115.133C136.567 96.7668 144.1 78.3001 147.233 63.1334C151.6 41.9001 147.833 28.9001 142.467 25.8001C139.733 24.2334 135.3 24.4334 129.967 26.4001C123.8 28.6667 116.833 33.1001 109.833 39.2001C97.2667 50.1334 84.4334 66.4001 73.7001 85.0001L70.2334 82.9667Z" fill="#00D8FF"/>
<path d="M137.8 183.367C128.733 183.367 117.233 177.9 105.233 167.567C91.8333 156.033 78.2 138.867 66.8 119.167C55.6 99.8333 47.6 79.7333 44.2333 62.5C42.2667 52.4333 41.9 43.2 43.1667 35.7667C44.5667 27.6667 47.8667 21.9 52.7667 19.0667C62.7 13.3 79.6 19.2333 96.8 34.5333C109 45.3667 121.8 61.8333 132.833 80.9C144.6 101.233 152.5 120.4 155.633 136.333C157.667 146.667 158 156.267 156.567 164.067C155.033 172.367 151.567 178.267 146.567 181.167C144.067 182.633 141.1 183.367 137.8 183.367ZM73.7333 115.167C84.5333 133.833 97.9333 150.733 110.467 161.5C125.5 174.433 137.433 177.233 142.6 174.233C147.967 171.133 151.9 158.433 147.833 137.9C144.833 122.833 137.267 104.5 125.933 84.9333C115.3 66.5667 103.067 50.8 91.5 40.5333C75.3 26.1333 62.1667 22.9 56.8 26C54.0667 27.5667 52.0333 31.5333 51.0667 37.1333C49.9667 43.6 50.3 51.8667 52.1 60.9667C55.3 77.3333 62.9667 96.5667 73.7333 115.167Z" fill="#00D8FF"/>
</svg>
