<svg width="200" height="200" viewBox="0 0 200 200" fill="none" xmlns="http://www.w3.org/2000/svg">
<path d="M188 36.6392C181.416 39.9731 174.344 42.2268 166.909 43.2399C174.497 38.0546 180.311 29.8379 183.056 20.0586C175.847 24.9441 167.958 28.3834 159.732 30.2273C153.037 22.0841 143.49 17 132.928 17C112.655 17 96.2131 35.7544 96.2131 58.9021C96.2131 62.1819 96.5368 65.3816 97.1591 68.4537C66.6404 66.7035 39.5836 50.0217 21.4731 24.6737C18.3107 30.8644 16.5006 38.0622 16.5006 45.7419C16.5006 60.2775 22.9841 73.1024 32.8357 80.615C27.0037 80.4088 21.2998 78.6125 16.2006 75.3762V75.9057C16.2006 96.2096 28.8562 113.14 45.6557 116.99C42.5697 117.955 39.331 118.459 35.9805 118.459C33.6116 118.459 31.3133 118.203 29.0681 117.721C33.741 134.363 47.3023 146.477 63.3662 146.819C50.7988 158.061 34.9633 164.762 17.7642 164.762C14.8019 164.762 11.8742 164.56 9 164.165C25.253 176.058 44.5509 183 65.2887 183C132.828 183 169.766 119.15 169.766 63.7791C169.766 61.9612 169.731 60.1569 169.654 58.3591C176.851 52.4191 183.063 45.0644 188 36.6392Z" fill="white"/>
</svg>
