<svg width="200" height="200" viewBox="0 0 200 200" fill="none" xmlns="http://www.w3.org/2000/svg">
<path d="M100.325 0.300049L188.579 50.2193V150.081L100.325 200L12.0708 150.081V50.2193L100.325 0.300049Z" fill="white"/>
<path d="M172.821 146.637L103.244 185.998V155.349L146.595 131.495L172.821 146.637V146.637ZM177.587 142.327V60.0254L152.137 74.7344V127.641L177.587 142.327V142.327ZM27.5552 146.637L97.1321 185.998V155.349L53.7577 131.495L27.5552 146.637ZM22.7891 142.327V60.0254L48.239 74.7344V127.641L22.7891 142.327ZM25.7765 54.6891L97.1321 14.325V43.9481L51.4089 69.1016L51.044 69.3069L25.7765 54.6891V54.6891ZM174.599 54.6891L103.244 14.325V43.9481L148.967 69.0788L149.332 69.2841L174.599 54.6891Z" fill="#8ED6FB"/>
<path d="M97.132 148.37L54.3506 124.836V78.2463L97.132 102.944V148.37ZM103.244 148.37L146.025 124.859V78.2463L103.244 102.944V148.37ZM57.2468 72.8644L100.188 49.2616L143.129 72.8644L100.188 97.653L57.2468 72.8644V72.8644Z" fill="#1C78C0"/>
</svg>
