<svg width="200" height="200" viewBox="0 0 200 200" fill="none" xmlns="http://www.w3.org/2000/svg">
<path d="M44.9698 42.6813C50.417 47.1032 52.4605 46.7658 62.6889 46.084L159.119 40.298C161.165 40.298 159.464 38.2592 158.782 37.9203L142.767 26.3514C139.698 23.9709 135.61 21.2446 127.774 21.9265L34.4006 28.7318C30.9954 29.0693 30.3151 30.7705 31.6715 32.1344L44.9698 42.6813ZM50.7593 65.1374V166.523C50.7593 171.972 53.4843 174.011 59.6174 173.674L165.594 167.546C171.73 167.209 172.414 163.461 172.414 159.035V58.3292C172.414 53.91 170.713 51.5268 166.956 51.867L56.2094 58.3292C52.1225 58.6724 50.7593 60.7153 50.7593 65.1374ZM155.379 70.576C156.059 73.6412 155.379 76.7035 152.307 77.048L147.2 78.0646V152.914C142.767 155.295 138.678 156.657 135.272 156.657C129.818 156.657 128.452 154.954 124.366 149.853L90.9659 97.4582V148.152L101.535 150.535C101.535 150.535 101.535 156.657 93.008 156.657L69.5007 158.019C68.8178 156.657 69.5007 153.257 71.8851 152.576L78.0194 150.877V83.8505L69.5021 83.1686C68.8192 80.1034 70.5203 75.6841 75.2945 75.3411L100.513 73.6425L135.272 126.72V79.7659L126.41 78.7494C125.729 75.0023 128.452 72.2814 131.86 71.944L155.379 70.576ZM26.5608 19.546L123.685 12.3991C135.611 11.3769 138.68 12.0616 146.176 17.5031L177.179 39.2772C182.295 43.0215 184 44.0409 184 48.1227V167.546C184 175.031 181.271 179.457 171.732 180.134L58.9428 186.94C51.7818 187.281 48.3736 186.261 44.6234 181.495L21.7923 151.895C17.7012 146.447 16 142.37 16 137.601V31.4497C16 25.3291 18.7292 20.2238 26.5608 19.546Z" fill="white"/>
</svg>
